<mxfile host="app.diagrams.net" modified="2022-11-24T09:16:14.558Z" agent="5.0 (Macintosh; Intel Mac OS X 10_15_7) AppleWebKit/537.36 (KHTML, like Gecko) Chrome/107.0.0.0 Safari/537.36" etag="JczJdq6oNNzLZhemEimC" version="20.6.0" type="github">
  <diagram id="C66Qxe7rhfVbxuxMDlhI" name="第 1 页">
    <mxGraphModel dx="946" dy="614" grid="1" gridSize="10" guides="1" tooltips="1" connect="1" arrows="1" fold="1" page="1" pageScale="1" pageWidth="827" pageHeight="1169" math="0" shadow="0">
      <root>
        <mxCell id="0" />
        <mxCell id="1" parent="0" />
        <mxCell id="xKPZJcg6HADtgQdfzsak-47" style="edgeStyle=orthogonalEdgeStyle;rounded=0;orthogonalLoop=1;jettySize=auto;html=1;exitX=1;exitY=0.5;exitDx=0;exitDy=0;entryX=-0.011;entryY=0.087;entryDx=0;entryDy=0;entryPerimeter=0;fillColor=#d5e8d4;strokeColor=#000000;" parent="1" source="xKPZJcg6HADtgQdfzsak-1" target="xKPZJcg6HADtgQdfzsak-5" edge="1">
          <mxGeometry relative="1" as="geometry" />
        </mxCell>
        <mxCell id="xKPZJcg6HADtgQdfzsak-1" value="Pv 流" style="shape=document;whiteSpace=wrap;html=1;boundedLbl=1;fillColor=#d5e8d4;strokeColor=#82b366;" parent="1" vertex="1">
          <mxGeometry x="110" y="170" width="80" height="40" as="geometry" />
        </mxCell>
        <mxCell id="xKPZJcg6HADtgQdfzsak-48" style="edgeStyle=orthogonalEdgeStyle;rounded=0;orthogonalLoop=1;jettySize=auto;html=1;exitX=1;exitY=0.5;exitDx=0;exitDy=0;entryX=0;entryY=0.348;entryDx=0;entryDy=0;entryPerimeter=0;fillColor=#d5e8d4;strokeColor=#000000;" parent="1" source="xKPZJcg6HADtgQdfzsak-2" target="xKPZJcg6HADtgQdfzsak-5" edge="1">
          <mxGeometry relative="1" as="geometry" />
        </mxCell>
        <mxCell id="xKPZJcg6HADtgQdfzsak-2" value="Click 流" style="shape=document;whiteSpace=wrap;html=1;boundedLbl=1;fillColor=#d5e8d4;strokeColor=#82b366;" parent="1" vertex="1">
          <mxGeometry x="110" y="230" width="80" height="40" as="geometry" />
        </mxCell>
        <mxCell id="xKPZJcg6HADtgQdfzsak-49" style="edgeStyle=orthogonalEdgeStyle;rounded=0;orthogonalLoop=1;jettySize=auto;html=1;exitX=1;exitY=0.5;exitDx=0;exitDy=0;entryX=0;entryY=0.652;entryDx=0;entryDy=0;entryPerimeter=0;fillColor=#d5e8d4;strokeColor=#000000;" parent="1" source="xKPZJcg6HADtgQdfzsak-3" target="xKPZJcg6HADtgQdfzsak-5" edge="1">
          <mxGeometry relative="1" as="geometry" />
        </mxCell>
        <mxCell id="xKPZJcg6HADtgQdfzsak-3" value="Pay 流" style="shape=document;whiteSpace=wrap;html=1;boundedLbl=1;fillColor=#d5e8d4;strokeColor=#82b366;" parent="1" vertex="1">
          <mxGeometry x="110" y="300" width="80" height="40" as="geometry" />
        </mxCell>
        <mxCell id="xKPZJcg6HADtgQdfzsak-50" style="edgeStyle=orthogonalEdgeStyle;rounded=0;orthogonalLoop=1;jettySize=auto;html=1;exitX=1;exitY=0.5;exitDx=0;exitDy=0;entryX=-0.005;entryY=0.914;entryDx=0;entryDy=0;entryPerimeter=0;fillColor=#d5e8d4;strokeColor=#000000;" parent="1" source="xKPZJcg6HADtgQdfzsak-4" target="xKPZJcg6HADtgQdfzsak-5" edge="1">
          <mxGeometry relative="1" as="geometry" />
        </mxCell>
        <mxCell id="xKPZJcg6HADtgQdfzsak-4" value="特征流" style="shape=document;whiteSpace=wrap;html=1;boundedLbl=1;fillColor=#d5e8d4;strokeColor=#82b366;" parent="1" vertex="1">
          <mxGeometry x="110" y="360" width="80" height="40" as="geometry" />
        </mxCell>
        <mxCell id="xKPZJcg6HADtgQdfzsak-51" style="edgeStyle=orthogonalEdgeStyle;rounded=0;orthogonalLoop=1;jettySize=auto;html=1;exitX=1;exitY=0.5;exitDx=0;exitDy=0;entryX=0;entryY=0.5;entryDx=0;entryDy=0;fillColor=#d5e8d4;strokeColor=#000000;" parent="1" source="xKPZJcg6HADtgQdfzsak-5" target="xKPZJcg6HADtgQdfzsak-6" edge="1">
          <mxGeometry relative="1" as="geometry" />
        </mxCell>
        <mxCell id="xKPZJcg6HADtgQdfzsak-5" value="Parse&lt;br&gt;+&lt;br&gt;Filter" style="rounded=0;whiteSpace=wrap;html=1;fillColor=#d5e8d4;strokeColor=#82b366;" parent="1" vertex="1">
          <mxGeometry x="230" y="170" width="70" height="230" as="geometry" />
        </mxCell>
        <mxCell id="xKPZJcg6HADtgQdfzsak-52" style="edgeStyle=orthogonalEdgeStyle;rounded=0;orthogonalLoop=1;jettySize=auto;html=1;exitX=0.5;exitY=1;exitDx=0;exitDy=0;entryX=0.5;entryY=0;entryDx=0;entryDy=0;fillColor=#d5e8d4;strokeColor=#000000;" parent="1" source="xKPZJcg6HADtgQdfzsak-6" target="xKPZJcg6HADtgQdfzsak-7" edge="1">
          <mxGeometry relative="1" as="geometry" />
        </mxCell>
        <mxCell id="xKPZJcg6HADtgQdfzsak-6" value="窗口Join" style="rounded=0;whiteSpace=wrap;html=1;fillColor=#d5e8d4;strokeColor=#82b366;" parent="1" vertex="1">
          <mxGeometry x="340" y="170" width="70" height="30" as="geometry" />
        </mxCell>
        <mxCell id="xKPZJcg6HADtgQdfzsak-53" style="edgeStyle=orthogonalEdgeStyle;rounded=0;orthogonalLoop=1;jettySize=auto;html=1;exitX=0.5;exitY=1;exitDx=0;exitDy=0;entryX=0.5;entryY=0;entryDx=0;entryDy=0;fillColor=#d5e8d4;strokeColor=#000000;" parent="1" source="xKPZJcg6HADtgQdfzsak-7" target="xKPZJcg6HADtgQdfzsak-8" edge="1">
          <mxGeometry relative="1" as="geometry" />
        </mxCell>
        <mxCell id="xKPZJcg6HADtgQdfzsak-7" value="Label生成" style="rounded=0;whiteSpace=wrap;html=1;fillColor=#d5e8d4;strokeColor=#82b366;" parent="1" vertex="1">
          <mxGeometry x="340" y="220" width="70" height="30" as="geometry" />
        </mxCell>
        <mxCell id="xKPZJcg6HADtgQdfzsak-54" style="edgeStyle=orthogonalEdgeStyle;rounded=0;orthogonalLoop=1;jettySize=auto;html=1;exitX=0.5;exitY=1;exitDx=0;exitDy=0;entryX=0.499;entryY=-0.082;entryDx=0;entryDy=0;entryPerimeter=0;fillColor=#d5e8d4;strokeColor=#000000;" parent="1" source="xKPZJcg6HADtgQdfzsak-8" target="xKPZJcg6HADtgQdfzsak-9" edge="1">
          <mxGeometry relative="1" as="geometry" />
        </mxCell>
        <mxCell id="xKPZJcg6HADtgQdfzsak-8" value="特征提取&lt;span style=&quot;color: rgba(0, 0, 0, 0); font-family: monospace; font-size: 0px; text-align: start;&quot;&gt;%3CmxGraphModel%3E%3Croot%3E%3CmxCell%20id%3D%220%22%2F%3E%3CmxCell%20id%3D%221%22%20parent%3D%220%22%2F%3E%3CmxCell%20id%3D%222%22%20value%3D%22Label%E7%94%9F%E6%88%90%22%20style%3D%22rounded%3D0%3BwhiteSpace%3Dwrap%3Bhtml%3D1%3B%22%20vertex%3D%221%22%20parent%3D%221%22%3E%3CmxGeometry%20x%3D%22340%22%20y%3D%22210%22%20width%3D%2270%22%20height%3D%2230%22%20as%3D%22geometry%22%2F%3E%3C%2FmxCell%3E%3C%2Froot%3E%3C%2FmxGraphModel%3E&lt;/span&gt;" style="rounded=0;whiteSpace=wrap;html=1;fillColor=#d5e8d4;strokeColor=#82b366;" parent="1" vertex="1">
          <mxGeometry x="340" y="270" width="70" height="30" as="geometry" />
        </mxCell>
        <mxCell id="xKPZJcg6HADtgQdfzsak-55" style="edgeStyle=orthogonalEdgeStyle;rounded=0;orthogonalLoop=1;jettySize=auto;html=1;exitX=0.5;exitY=1;exitDx=0;exitDy=0;entryX=0.5;entryY=0;entryDx=0;entryDy=0;fillColor=#d5e8d4;strokeColor=#000000;" parent="1" source="xKPZJcg6HADtgQdfzsak-9" target="xKPZJcg6HADtgQdfzsak-10" edge="1">
          <mxGeometry relative="1" as="geometry" />
        </mxCell>
        <mxCell id="xKPZJcg6HADtgQdfzsak-9" value="样本生成" style="rounded=0;whiteSpace=wrap;html=1;fillColor=#d5e8d4;strokeColor=#82b366;" parent="1" vertex="1">
          <mxGeometry x="340" y="320" width="70" height="30" as="geometry" />
        </mxCell>
        <mxCell id="xKPZJcg6HADtgQdfzsak-56" style="edgeStyle=orthogonalEdgeStyle;rounded=0;orthogonalLoop=1;jettySize=auto;html=1;exitX=0.5;exitY=1;exitDx=0;exitDy=0;entryX=1;entryY=0.667;entryDx=0;entryDy=0;entryPerimeter=0;fillColor=#d5e8d4;strokeColor=#000000;" parent="1" source="xKPZJcg6HADtgQdfzsak-10" target="xKPZJcg6HADtgQdfzsak-11" edge="1">
          <mxGeometry relative="1" as="geometry" />
        </mxCell>
        <mxCell id="xKPZJcg6HADtgQdfzsak-57" style="edgeStyle=orthogonalEdgeStyle;rounded=0;orthogonalLoop=1;jettySize=auto;html=1;exitX=0.5;exitY=1;exitDx=0;exitDy=0;entryX=0.016;entryY=0.668;entryDx=0;entryDy=0;entryPerimeter=0;fillColor=#d5e8d4;strokeColor=#000000;" parent="1" source="xKPZJcg6HADtgQdfzsak-10" target="xKPZJcg6HADtgQdfzsak-13" edge="1">
          <mxGeometry relative="1" as="geometry">
            <Array as="points">
              <mxPoint x="375" y="440" />
            </Array>
          </mxGeometry>
        </mxCell>
        <mxCell id="xKPZJcg6HADtgQdfzsak-10" value="时序打散" style="rounded=0;whiteSpace=wrap;html=1;fillColor=#d5e8d4;strokeColor=#82b366;" parent="1" vertex="1">
          <mxGeometry x="340" y="370" width="70" height="30" as="geometry" />
        </mxCell>
        <mxCell id="xKPZJcg6HADtgQdfzsak-11" value="样本监控" style="rounded=0;whiteSpace=wrap;html=1;fillColor=#d5e8d4;strokeColor=#82b366;" parent="1" vertex="1">
          <mxGeometry x="270" y="420" width="70" height="30" as="geometry" />
        </mxCell>
        <mxCell id="xKPZJcg6HADtgQdfzsak-14" value="" style="group" parent="1" vertex="1" connectable="0">
          <mxGeometry x="414" y="400" width="70" height="70" as="geometry" />
        </mxCell>
        <mxCell id="xKPZJcg6HADtgQdfzsak-12" value="&lt;div style=&quot;text-align: left;&quot;&gt;&lt;br&gt;&lt;/div&gt;" style="triangle;whiteSpace=wrap;html=1;fillColor=#d5e8d4;strokeColor=#82b366;" parent="xKPZJcg6HADtgQdfzsak-14" vertex="1">
          <mxGeometry x="10" width="60" height="70" as="geometry" />
        </mxCell>
        <mxCell id="xKPZJcg6HADtgQdfzsak-13" value="Swift&lt;br&gt;实时特征" style="text;html=1;strokeColor=none;fillColor=none;align=center;verticalAlign=middle;whiteSpace=wrap;rounded=0;" parent="xKPZJcg6HADtgQdfzsak-14" vertex="1">
          <mxGeometry y="20" width="60" height="30" as="geometry" />
        </mxCell>
        <mxCell id="xKPZJcg6HADtgQdfzsak-33" value="" style="group" parent="1" vertex="1" connectable="0">
          <mxGeometry x="550" y="180" width="70" height="50" as="geometry" />
        </mxCell>
        <mxCell id="xKPZJcg6HADtgQdfzsak-29" value="" style="strokeWidth=1;html=1;shape=mxgraph.flowchart.database;whiteSpace=wrap;fillColor=#fff2cc;strokeColor=#d6b656;" parent="xKPZJcg6HADtgQdfzsak-33" vertex="1">
          <mxGeometry width="70" height="50" as="geometry" />
        </mxCell>
        <mxCell id="xKPZJcg6HADtgQdfzsak-32" value="批模型&lt;br&gt;ckpt" style="text;html=1;strokeColor=none;fillColor=none;align=center;verticalAlign=middle;whiteSpace=wrap;rounded=0;" parent="xKPZJcg6HADtgQdfzsak-33" vertex="1">
          <mxGeometry x="5" y="20" width="60" height="30" as="geometry" />
        </mxCell>
        <mxCell id="xKPZJcg6HADtgQdfzsak-60" style="edgeStyle=orthogonalEdgeStyle;rounded=0;orthogonalLoop=1;jettySize=auto;html=1;exitX=0.5;exitY=1;exitDx=0;exitDy=0;entryX=0.5;entryY=0;entryDx=0;entryDy=0;entryPerimeter=0;fillColor=#fff2cc;strokeColor=#d6b656;" parent="1" source="xKPZJcg6HADtgQdfzsak-34" target="xKPZJcg6HADtgQdfzsak-36" edge="1">
          <mxGeometry relative="1" as="geometry" />
        </mxCell>
        <mxCell id="xKPZJcg6HADtgQdfzsak-63" style="edgeStyle=orthogonalEdgeStyle;rounded=0;orthogonalLoop=1;jettySize=auto;html=1;exitX=1;exitY=0.5;exitDx=0;exitDy=0;entryX=0;entryY=0.5;entryDx=0;entryDy=0;" parent="1" source="xKPZJcg6HADtgQdfzsak-34" target="xKPZJcg6HADtgQdfzsak-39" edge="1">
          <mxGeometry relative="1" as="geometry" />
        </mxCell>
        <mxCell id="xKPZJcg6HADtgQdfzsak-34" value="流式训练" style="rounded=0;whiteSpace=wrap;html=1;fillColor=#fff2cc;strokeColor=#d6b656;" parent="1" vertex="1">
          <mxGeometry x="550" y="260" width="70" height="30" as="geometry" />
        </mxCell>
        <mxCell id="xKPZJcg6HADtgQdfzsak-35" value="" style="group" parent="1" vertex="1" connectable="0">
          <mxGeometry x="550" y="320" width="70" height="50" as="geometry" />
        </mxCell>
        <mxCell id="xKPZJcg6HADtgQdfzsak-36" value="" style="strokeWidth=1;html=1;shape=mxgraph.flowchart.database;whiteSpace=wrap;fillColor=#fff2cc;strokeColor=#d6b656;" parent="xKPZJcg6HADtgQdfzsak-35" vertex="1">
          <mxGeometry width="70" height="50" as="geometry" />
        </mxCell>
        <mxCell id="xKPZJcg6HADtgQdfzsak-37" value="实时模型&lt;br&gt;ckpt" style="text;html=1;strokeColor=none;fillColor=none;align=center;verticalAlign=middle;whiteSpace=wrap;rounded=0;" parent="xKPZJcg6HADtgQdfzsak-35" vertex="1">
          <mxGeometry x="5" y="20" width="60" height="30" as="geometry" />
        </mxCell>
        <mxCell id="xKPZJcg6HADtgQdfzsak-62" style="edgeStyle=orthogonalEdgeStyle;rounded=0;orthogonalLoop=1;jettySize=auto;html=1;exitX=1;exitY=0.5;exitDx=0;exitDy=0;" parent="1" source="xKPZJcg6HADtgQdfzsak-38" target="xKPZJcg6HADtgQdfzsak-44" edge="1">
          <mxGeometry relative="1" as="geometry" />
        </mxCell>
        <mxCell id="xKPZJcg6HADtgQdfzsak-38" value="模型校验" style="rounded=0;whiteSpace=wrap;html=1;fillColor=#fff2cc;strokeColor=#d6b656;" parent="1" vertex="1">
          <mxGeometry x="550" y="420" width="70" height="30" as="geometry" />
        </mxCell>
        <mxCell id="xKPZJcg6HADtgQdfzsak-64" style="edgeStyle=orthogonalEdgeStyle;rounded=0;orthogonalLoop=1;jettySize=auto;html=1;exitX=1;exitY=0.5;exitDx=0;exitDy=0;fillColor=#dae8fc;strokeColor=#000000;" parent="1" source="xKPZJcg6HADtgQdfzsak-39" target="xKPZJcg6HADtgQdfzsak-42" edge="1">
          <mxGeometry relative="1" as="geometry" />
        </mxCell>
        <mxCell id="xKPZJcg6HADtgQdfzsak-39" value="参数实时更新" style="rounded=0;whiteSpace=wrap;html=1;fillColor=#dae8fc;strokeColor=#6c8ebf;" parent="1" vertex="1">
          <mxGeometry x="690" y="260" width="90" height="30" as="geometry" />
        </mxCell>
        <mxCell id="xKPZJcg6HADtgQdfzsak-42" value="模型监控" style="rounded=0;whiteSpace=wrap;html=1;fillColor=#dae8fc;strokeColor=#6c8ebf;" parent="1" vertex="1">
          <mxGeometry x="800" y="310" width="70" height="30" as="geometry" />
        </mxCell>
        <mxCell id="xKPZJcg6HADtgQdfzsak-65" style="edgeStyle=orthogonalEdgeStyle;rounded=0;orthogonalLoop=1;jettySize=auto;html=1;exitX=1;exitY=0.5;exitDx=0;exitDy=0;entryX=0.5;entryY=1;entryDx=0;entryDy=0;fillColor=#dae8fc;strokeColor=#000000;" parent="1" source="xKPZJcg6HADtgQdfzsak-43" target="xKPZJcg6HADtgQdfzsak-42" edge="1">
          <mxGeometry relative="1" as="geometry" />
        </mxCell>
        <mxCell id="xKPZJcg6HADtgQdfzsak-43" value="全量切换&lt;span style=&quot;color: rgba(0, 0, 0, 0); font-family: monospace; font-size: 0px; text-align: start;&quot;&gt;%3CmxGraphModel%3E%3Croot%3E%3CmxCell%20id%3D%220%22%2F%3E%3CmxCell%20id%3D%221%22%20parent%3D%220%22%2F%3E%3CmxCell%20id%3D%222%22%20value%3D%22%E6%A8%A1%E5%9E%8B%E7%9B%91%E6%8E%A7%22%20style%3D%22rounded%3D0%3BwhiteSpace%3Dwrap%3Bhtml%3D1%3B%22%20vertex%3D%221%22%20parent%3D%221%22%3E%3CmxGeometry%20x%3D%22800%22%20y%3D%22310%22%20width%3D%2270%22%20height%3D%2230%22%20as%3D%22geometry%22%2F%3E%3C%2FmxCell%3E%3C%2Froot%3E%3C%2FmxGraphModel%3E&lt;/span&gt;" style="rounded=0;whiteSpace=wrap;html=1;fillColor=#dae8fc;strokeColor=#6c8ebf;" parent="1" vertex="1">
          <mxGeometry x="700" y="350" width="70" height="30" as="geometry" />
        </mxCell>
        <mxCell id="xKPZJcg6HADtgQdfzsak-66" style="edgeStyle=orthogonalEdgeStyle;rounded=0;orthogonalLoop=1;jettySize=auto;html=1;exitX=0.5;exitY=0;exitDx=0;exitDy=0;fillColor=#dae8fc;strokeColor=#000000;" parent="1" source="xKPZJcg6HADtgQdfzsak-44" target="xKPZJcg6HADtgQdfzsak-43" edge="1">
          <mxGeometry relative="1" as="geometry" />
        </mxCell>
        <mxCell id="xKPZJcg6HADtgQdfzsak-44" value="模型Build" style="rounded=0;whiteSpace=wrap;html=1;fillColor=#dae8fc;strokeColor=#6c8ebf;" parent="1" vertex="1">
          <mxGeometry x="700" y="420" width="70" height="30" as="geometry" />
        </mxCell>
        <mxCell id="xKPZJcg6HADtgQdfzsak-58" style="edgeStyle=orthogonalEdgeStyle;rounded=0;orthogonalLoop=1;jettySize=auto;html=1;exitX=1;exitY=0.5;exitDx=0;exitDy=0;entryX=0;entryY=0.5;entryDx=0;entryDy=0;" parent="1" source="xKPZJcg6HADtgQdfzsak-12" target="xKPZJcg6HADtgQdfzsak-34" edge="1">
          <mxGeometry relative="1" as="geometry" />
        </mxCell>
        <mxCell id="xKPZJcg6HADtgQdfzsak-59" style="edgeStyle=orthogonalEdgeStyle;rounded=0;orthogonalLoop=1;jettySize=auto;html=1;exitX=0.5;exitY=1;exitDx=0;exitDy=0;entryX=0.5;entryY=0;entryDx=0;entryDy=0;fillColor=#fff2cc;strokeColor=#d6b656;" parent="1" source="xKPZJcg6HADtgQdfzsak-32" target="xKPZJcg6HADtgQdfzsak-34" edge="1">
          <mxGeometry relative="1" as="geometry" />
        </mxCell>
        <mxCell id="xKPZJcg6HADtgQdfzsak-61" style="edgeStyle=orthogonalEdgeStyle;rounded=0;orthogonalLoop=1;jettySize=auto;html=1;exitX=0.5;exitY=1;exitDx=0;exitDy=0;entryX=0.5;entryY=0;entryDx=0;entryDy=0;fillColor=#fff2cc;strokeColor=#d6b656;" parent="1" source="xKPZJcg6HADtgQdfzsak-37" target="xKPZJcg6HADtgQdfzsak-38" edge="1">
          <mxGeometry relative="1" as="geometry" />
        </mxCell>
        <mxCell id="xKPZJcg6HADtgQdfzsak-67" value="Swift推送" style="text;html=1;strokeColor=none;fillColor=none;align=center;verticalAlign=middle;whiteSpace=wrap;rounded=0;strokeWidth=1;" parent="1" vertex="1">
          <mxGeometry x="630" y="240" width="60" height="30" as="geometry" />
        </mxCell>
        <mxCell id="xKPZJcg6HADtgQdfzsak-68" value="定时发布" style="text;html=1;strokeColor=none;fillColor=none;align=center;verticalAlign=middle;whiteSpace=wrap;rounded=0;strokeWidth=1;" parent="1" vertex="1">
          <mxGeometry x="630" y="410" width="60" height="30" as="geometry" />
        </mxCell>
        <mxCell id="pmXyRujqPZZh_xKghwm2-1" value="&lt;h4&gt;&lt;b&gt;&lt;font color=&quot;#00994d&quot; style=&quot;font-size: 19px;&quot;&gt;星云-实时样本&lt;/font&gt;&lt;/b&gt;&lt;/h4&gt;" style="text;html=1;strokeColor=none;fillColor=none;align=center;verticalAlign=middle;whiteSpace=wrap;rounded=0;" parent="1" vertex="1">
          <mxGeometry x="225" y="500" width="160" height="30" as="geometry" />
        </mxCell>
        <mxCell id="pmXyRujqPZZh_xKghwm2-4" value="&lt;h4&gt;&lt;b&gt;&lt;font color=&quot;#ff8000&quot; style=&quot;font-size: 19px;&quot;&gt;AOP-模型训练&lt;/font&gt;&lt;/b&gt;&lt;/h4&gt;" style="text;html=1;strokeColor=none;fillColor=none;align=center;verticalAlign=middle;whiteSpace=wrap;rounded=0;" parent="1" vertex="1">
          <mxGeometry x="505" y="500" width="160" height="30" as="geometry" />
        </mxCell>
        <mxCell id="pmXyRujqPZZh_xKghwm2-5" value="&lt;h4&gt;&lt;b&gt;&lt;font color=&quot;#007fff&quot; style=&quot;font-size: 19px;&quot;&gt;RTP-在线服务&lt;/font&gt;&lt;/b&gt;&lt;/h4&gt;" style="text;html=1;strokeColor=none;fillColor=none;align=center;verticalAlign=middle;whiteSpace=wrap;rounded=0;" parent="1" vertex="1">
          <mxGeometry x="700" y="500" width="160" height="30" as="geometry" />
        </mxCell>
      </root>
    </mxGraphModel>
  </diagram>
</mxfile>
